<?xml version="1.0" encoding="utf-8"?><!-- Uploaded to: SVG Repo, www.svgrepo.com, Generator: SVG Repo Mixer Tools -->
<svg width="800px" height="800px" viewBox="0 0 960 960" fill="none" xmlns="http://www.w3.org/2000/svg">
<path d="M624.301 794.678C573.128 794.678 521.701 794.678 469.468 794.678C486.276 843.947 458.564 899.225 409.086 915.162C311.334 945.578 249.953 807.904 339.653 754.655C314.472 728.485 309.199 694.824 302.883 661.947C276.05 547.79 270.881 425.922 227.984 316.652C209.946 284.14 170 296.633 139.575 296.657C124.513 299.424 108.45 291.46 106.479 277.124C101.827 249.637 137.976 245.048 158.473 243.285C243.122 231.781 283.315 278.68 299.406 356.443C441.887 350.945 583.094 343.934 725.414 339.555C750.554 338.787 775.845 338.25 800.602 344.503C881.388 364.387 849.484 460.513 837.97 518.699C831.029 551.094 821.399 582.621 805.611 611.992C768.606 691.421 690.009 702.546 610.74 698.849C529.938 699.364 449.237 697.643 368.437 696.267C374.41 728.491 417.156 734.857 444.105 738.069C542.04 746.714 639.879 737.755 737.721 732.628C787.577 737.281 805.288 800.704 791.412 841.849C755.975 954.732 597.452 911.191 624.301 794.678ZM632.991 394.093C574.412 396.925 517.582 399.672 459.464 402.482C464.6 431.473 469.513 459.208 474.443 487.039C524.368 487.039 573.453 487.039 623.105 487.039C626.399 456.073 629.642 425.58 632.991 394.093ZM498.906 646.896C535.731 646.896 571.938 646.896 608.016 646.896C610.968 611.611 613.865 576.993 616.814 541.739C572.061 541.739 528.263 541.739 483.482 541.739C488.675 577.139 493.761 611.813 498.906 646.896ZM793.184 489.176C796.57 466.402 800.772 443.577 803.12 420.562C804.874 403.366 798.616 395.553 781.514 393.881C749.944 391.311 716.905 389.708 685.507 392.613C681.99 425.147 678.571 456.768 675.067 489.175C714.215 489.176 752.731 489.176 793.184 489.176ZM336.214 546.362C339.729 577.728 348.366 608.768 354.103 639.987C354.545 642.064 358.59 644.729 361.039 644.815C390.684 645.849 417.934 645.186 448.003 647.535C442.124 611.54 436.439 576.738 430.592 540.943C398.463 542.787 367.534 544.563 336.214 546.362ZM657.501 647.049C722.773 655.527 763.64 601.173 779.129 543.979C741.657 543.979 705.436 543.979 668.455 543.979C664.801 578.363 661.199 612.251 657.501 647.049ZM420.79 487.225C416.602 474.969 410.564 402.614 401.301 404.642C371.292 406.176 341.52 405.673 311.778 410.877C316.677 438.863 321.386 465.762 326.162 493.046C357.801 491.1 388.709 489.199 420.79 487.225ZM420.96 825.072C421.924 803.696 397.069 782.271 379.428 791.448C357.712 801.802 338.474 824.385 354.746 848.906C374.928 884.023 421.378 860.498 420.96 825.072ZM727.16 787.135C719.684 787.717 713.283 788.441 706.866 788.673C655.858 789.134 666.931 866.618 714.877 855.2C738.994 847.289 751.222 818.568 740.323 795.676C737.406 789.549 733.668 785.274 727.16 787.135Z" fill="#000000"/>
<path d="M556.914 225.362C559.458 188.809 562.081 152.261 564.505 115.7C568.68 90.6585 556.36 37.5945 595.748 40.6245C628.463 47.7655 610.344 90.4715 611.446 113.825C607.798 160.404 603.248 206.919 601.875 253.627C600.433 285.168 557.19 284.994 558.055 252.332C558.04 243.371 558.151 234.407 558.107 225.444C557.71 225.418 557.312 225.39 556.914 225.362Z" fill="#000000"/>
<path d="M476.91 265.711C476.463 288.562 446.12 299.248 432.92 280.065C416.615 254.054 405.662 224.919 391.93 197.499C373.845 161.906 424.861 138.03 440.204 174.958C452.265 205.222 468.249 234.274 476.91 265.711Z" fill="#000000"/>
<path d="M712.938 294.797C691.285 295.745 681.584 274.992 692.847 259.825C705.157 243.602 717.843 227.401 732.087 212.833C755.81 189.221 789.739 222.625 766.736 246.827C750.243 262.693 733.691 285.475 712.938 294.797Z" fill="#000000"/>
<path d="M632.988 394.094C629.639 425.58 626.396 456.074 623.102 487.04C573.45 487.04 524.365 487.04 474.44 487.04C469.51 459.208 464.597 431.474 459.461 402.483C517.58 399.673 574.409 396.926 632.988 394.094Z" fill="white"/>
<path d="M498.908 646.899C493.762 611.816 488.677 577.142 483.484 541.742C528.265 541.742 572.063 541.742 616.816 541.742C613.866 576.995 610.97 611.613 608.018 646.899C571.94 646.899 535.734 646.899 498.908 646.899Z" fill="white"/>
<path d="M793.186 489.178C752.732 489.178 714.216 489.178 675.07 489.178C678.574 456.77 681.992 425.15 685.51 392.616C716.915 389.711 749.941 391.314 781.517 393.883C798.618 395.555 804.877 403.368 803.123 420.564C800.775 443.578 796.573 466.404 793.186 489.178Z" fill="white"/>
<path d="M336.211 546.364C367.531 544.566 398.46 542.79 430.589 540.945C436.436 576.74 442.121 611.542 448 647.537C417.946 645.19 390.67 645.851 361.036 644.817C358.587 644.731 354.542 642.066 354.102 639.988C348.362 608.768 339.727 577.731 336.211 546.364Z" fill="white"/>
<path d="M657.5 647.05C661.198 612.252 664.8 578.364 668.454 543.98C705.435 543.98 741.656 543.98 779.128 543.98C763.639 601.182 722.76 655.527 657.5 647.05Z" fill="white"/>
<path d="M420.793 487.227C388.711 489.201 357.804 491.102 326.165 493.049C321.389 465.765 316.68 438.866 311.781 410.88C341.52 405.675 371.298 406.179 401.302 404.645C410.585 402.573 416.576 474.917 420.793 487.227Z" fill="white"/>
<path d="M420.962 825.072C421.376 860.494 374.929 884.029 354.746 848.904C338.489 824.381 357.704 801.802 379.432 791.449C397.066 782.278 421.934 803.69 420.962 825.072Z" fill="white"/>
<path d="M727.162 787.135C733.669 785.274 737.408 789.549 740.325 795.676C751.223 818.567 738.995 847.289 714.877 855.199C666.925 866.604 655.862 789.136 706.87 788.673C713.286 788.441 719.686 787.717 727.162 787.135Z" fill="white"/>
</svg>